<?xml version="1.0" encoding="utf-8"?>
<!-- Generator: Adobe Illustrator 26.2.1, SVG Export Plug-In . SVG Version: 6.00 Build 0)  -->
<svg version="1.1" id="Layer_1" xmlns="http://www.w3.org/2000/svg" xmlns:xlink="http://www.w3.org/1999/xlink" x="0px" y="0px"
	 viewBox="0 0 1080 1080" style="enable-background:new 0 0 1080 1080;" xml:space="preserve">
<style type="text/css">
	.st0{fill:#87332B;}
	.st1{fill:#FFFFFF;}
</style>
<g>
	<path class="st0" d="M539.5,148.1c-103.7,0-187.7,84.1-187.7,187.7c0,28.8,6.5,56.1,18.1,80.5c62.2-13.6,119.6-25.3,116.7-33.8
		c-3.8-11.5-59.5-15.3-63.4-31.2c-5.4-21.9,174.8-51.5,209.4-50.6c-88.1,20.8-74.2,41.8-74.2,41.8c0,11.6,54.3,18.8,53,37.1
		c-1.8,25.3-133.1,73.9-167,90.4c-8.6,4.9-14.4,10.2-18,15.7c31.5,23.8,70.6,37.8,113.1,37.8c103.7,0,187.7-84,187.7-187.7
		C727.3,232.1,643.2,148.1,539.5,148.1z M660.3,262.4c-17.7,2.6-22.2,7-24.8,24.8c-0.2,1.2-1.9,1.2-2.1,0
		c-2.6-17.7-7-22.2-24.8-24.8c-1.2-0.2-1.2-1.9,0-2.1c17.7-2.6,22.2-7,24.8-24.8c0.2-1.2,1.9-1.2,2.1,0c2.6,17.7,7,22.2,24.8,24.8
		C661.6,260.5,661.6,262.2,660.3,262.4z"/>
	<path class="st1" d="M236.8,608.8c1.2,1.2,1.6,2.6,1.2,4.2l-36,186.7c-0.8,2.8-2.6,4.2-5.4,4.2h-31c-3,0-4.8-1.4-5.4-4.2l-36-186.7
		c-0.4-1.6,0-3,1.2-4.2c0.8-1.4,2.2-2.1,4.2-2.1h29.8c3,0,4.7,1.5,5.1,4.5l16.7,99.2l16.7-99.2c0.2-1.4,0.8-2.5,1.8-3.3
		c1-0.8,2.1-1.2,3.3-1.2h29.8C234.6,606.7,236,607.4,236.8,608.8"/>
	<path class="st1" d="M344.6,767.2c1,1,1.5,2.3,1.5,3.8v27.8c0,1.4-0.5,2.6-1.5,3.6c-1,1-2.3,1.5-3.9,1.5h-82.5
		c-1.6,0-2.9-0.5-3.9-1.5c-1-1-1.5-2.2-1.5-3.6V612.1c0-1.6,0.5-2.9,1.5-3.9c1-1,2.3-1.5,3.9-1.5h80.7c1.6,0,2.9,0.5,3.9,1.5
		c1,1,1.5,2.3,1.5,3.9v27.4c0,1.6-0.5,2.9-1.5,3.9c-1,1-2.3,1.5-3.9,1.5h-44.7v37.8h32.2c1.6,0,2.9,0.5,3.9,1.5c1,1,1.5,2.3,1.5,3.9
		v27.4c0,1.6-0.5,2.9-1.5,3.9c-1,1-2.3,1.5-3.9,1.5h-32.2v45h46.5C342.3,765.8,343.6,766.2,344.6,767.2"/>
	<path class="st1" d="M468.5,608.2c1,1,1.5,2.3,1.5,3.9v186.7c0,1.4-0.5,2.6-1.5,3.6c-1,1-2.3,1.5-3.8,1.5h-27.2
		c-2.6,0-4.2-1.2-5-3.6l-29.8-84.9v83.4c0,1.4-0.5,2.6-1.5,3.6c-1,1-2.3,1.5-3.8,1.5h-27.5c-1.6,0-2.8-0.5-3.8-1.5
		c-1-1-1.5-2.2-1.5-3.6V612.1c0-1.6,0.5-2.9,1.5-3.9c1-1,2.3-1.5,3.8-1.5h27.5c2.8,0,4.4,1.2,5,3.6l29.5,83.4v-81.6
		c0-1.6,0.5-2.9,1.5-3.9c1-1,2.3-1.5,3.9-1.5h27.5C466.2,606.7,467.5,607.2,468.5,608.2"/>
	<path class="st1" d="M591.4,608.2c1,1,1.5,2.3,1.5,3.9v27.4c0,1.6-0.5,2.9-1.5,3.9c-1,1-2.3,1.5-3.9,1.5h-25.3v154
		c0,1.4-0.5,2.6-1.5,3.6c-1,1-2.3,1.5-3.9,1.5h-30.6c-1.6,0-2.9-0.5-3.9-1.5c-1-1-1.5-2.2-1.5-3.6v-154h-25.3
		c-1.6,0-2.9-0.5-3.9-1.5c-1-1-1.5-2.3-1.5-3.9v-27.4c0-1.6,0.5-2.9,1.5-3.9c1-1,2.3-1.5,3.9-1.5h92
		C589.2,606.7,590.4,607.2,591.4,608.2"/>
	<path class="st1" d="M713.8,608.2c1,1,1.5,2.3,1.5,3.9v139.7c0,18.1-4.6,31.8-13.7,41.1c-9.1,9.7-21.9,14.6-38.4,14.6
		c-16.5,0-29.3-4.9-38.4-14.6c-9.1-9.7-13.7-23.6-13.7-41.7V612.1c0-1.6,0.5-2.9,1.5-3.9c1-1,2.3-1.5,3.9-1.5h30.7
		c1.6,0,2.9,0.5,3.9,1.5c1,1,1.5,2.3,1.5,3.9v143c0,4.6,1,8.1,3,10.7c2,2,4.7,3,8,3c2.8,0,5.2-0.8,7.3-2.4c2.1-1.6,3.1-5.4,3.1-11.3
		v-143c0-1.6,0.5-2.9,1.5-3.9c1-1,2.3-1.5,3.9-1.5H710C711.6,606.7,712.8,607.2,713.8,608.2"/>
	<path class="st1" d="M774.9,689.2h6.2c3.5,0,6.2-0.4,7.9-1.2c1.4-0.6,2.5-1.5,3.5-2.7c1.2-1.4,2.1-3.6,2.6-6.6
		c0.6-3.2,0.9-7.4,0.9-12.8c0-6-0.4-10.2-1.2-12.8c-0.8-2.6-1.6-4.3-2.3-5.1c-2-2.6-6-3.9-12-3.9h-5.6V689.2z M837.7,798.8
		c0,1.6-0.5,2.9-1.5,3.9c-1,1-2.3,1.5-3.9,1.5H802c-1.6,0-2.9-0.5-3.9-1.5c-1-1-1.5-2.3-1.5-3.9V750c0-8.7-1.5-14.9-4.4-18.5
		c-2.6-3.2-7.2-4.8-13.8-4.8h-3.5v72.1c0,1.6-0.5,2.9-1.5,3.9c-1,1-2.3,1.5-3.9,1.5h-30.6c-1.6,0-2.9-0.5-3.9-1.5
		c-1-1-1.5-2.3-1.5-3.9V612.4c0-1.6,0.5-2.9,1.5-3.9c1-1,2.3-1.5,3.9-1.5h43.5c18.7,0,32.5,4.7,41.4,14c5,5.2,8.4,11.5,10.4,19.1
		c1.2,3.8,2,7.8,2.5,12.2c0.5,4.4,0.7,9.1,0.7,14.3c0,14.1-2.1,25.1-6.3,33.1c-1,2.2-2.2,4.3-3.6,6.3c-1.4,2-2.9,3.8-4.5,5.4
		c3.4,3,6.1,6.4,8,10.1c3.8,7,6,14.9,6.6,23.8v0.9V798.8z"/>
	<path class="st1" d="M953.6,767.2c1,1,1.5,2.3,1.5,3.8v27.8c0,1.4-0.5,2.6-1.5,3.6c-1,1-2.3,1.5-3.9,1.5h-82.5
		c-1.6,0-2.9-0.5-3.9-1.5c-1-1-1.5-2.2-1.5-3.6V612.1c0-1.6,0.5-2.9,1.5-3.9c1-1,2.3-1.5,3.9-1.5h80.7c1.6,0,2.9,0.5,3.9,1.5
		c1,1,1.5,2.3,1.5,3.9v27.4c0,1.6-0.5,2.9-1.5,3.9c-1,1-2.3,1.5-3.9,1.5h-44.7v37.8h32.2c1.6,0,2.9,0.5,3.9,1.5c1,1,1.5,2.3,1.5,3.9
		v27.4c0,1.6-0.5,2.9-1.5,3.9c-1,1-2.3,1.5-3.9,1.5h-32.2v45h46.5C951.3,765.8,952.6,766.2,953.6,767.2"/>
	<polygon class="st1" points="333.5,918.9 343.8,918.9 343.8,942.2 301.6,942.2 301.6,918.9 309.8,918.9 309.8,881.8 301.6,881.8 
		301.6,858.4 391.5,858.4 391.5,889.6 367.8,889.6 367.8,881.8 333.5,881.8 333.5,889.8 361.5,889.8 361.5,910.8 333.5,910.8 	"/>
	<path class="st1" d="M433.6,910.2v-28.4h-9.3v-23.5h42.4v22.7l-9.3,0.8v24.3c0,10,5.1,14.9,17.3,14.9c12.2,0,17.3-4.9,17.3-14.9
		v-24.3l-9.2-0.8v-22.7h42.2v23.5h-9.3v28.4c0,20.8-15.3,34.8-41,34.8C449,945,433.6,931,433.6,910.2"/>
	<path class="st1" d="M631.2,918.9v-11.2h23.5c0,0-0.1,34.4-0.1,34.6h-92.1v-23.3h8.2v-37.1h-8.2v-23.5h90V890h-23.7v-8.2h-34.4v7.9
		h26.7v21.1h-26.7v8.1H631.2z"/>
	<polygon class="st1" points="763.5,918.9 763.5,907.7 787,907.7 787,942.2 697.3,942.2 697.3,918.9 705.5,918.9 705.5,881.8 
		697.3,881.8 697.3,858.4 739.7,858.4 739.7,881.8 729.2,881.8 729.2,918.9 	"/>
</g>
</svg>
