<?xml version="1.0" encoding="utf-8"?>
<!-- Generator: Adobe Illustrator 26.2.1, SVG Export Plug-In . SVG Version: 6.00 Build 0)  -->
<svg version="1.1" xmlns="http://www.w3.org/2000/svg" xmlns:xlink="http://www.w3.org/1999/xlink" x="0px" y="0px"
	 viewBox="0 0 195 72" style="enable-background:new 0 0 195 72;" xml:space="preserve">
<style type="text/css">
	.st0{display:none;}
	.st1{display:inline;fill:#FF1166;}
	.st2{fill:#FFFFFF;}
</style>
<g id="Layer_2" class="st0">
	<rect class="st1" width="1080" height="72"/>
</g>
<g id="Layer_1">
	<path class="st2" d="M29.3,6.7C13.1,6.7,0,19.8,0,36c0,4.5,1,8.7,2.8,12.6c9.7-2.1,18.6-3.9,18.2-5.3c-0.6-1.8-9.3-2.4-9.9-4.9
		c-0.8-3.4,27.2-8,32.6-7.9c-13.7,3.3-11.6,6.5-11.6,6.5c0,1.8,8.5,2.9,8.3,5.8c-0.3,3.9-20.8,11.5-26,14.1
		c-1.3,0.8-2.2,1.6-2.8,2.4c4.9,3.7,11,5.9,17.6,5.9c16.2,0,29.3-13.1,29.3-29.3C58.5,19.8,45.4,6.7,29.3,6.7z M48.1,24.6
		c-2.8,0.4-3.5,1.1-3.9,3.9c0,0.2-0.3,0.2-0.3,0c-0.4-2.8-1.1-3.5-3.9-3.9c-0.2,0-0.2-0.3,0-0.3c2.8-0.4,3.5-1.1,3.9-3.9
		c0-0.2,0.3-0.2,0.3,0c0.4,2.8,1.1,3.5,3.9,3.9C48.3,24.3,48.3,24.5,48.1,24.6z"/>
	<g>
		<g>
			<path class="st2" d="M84.7,9.4c0.2,0.2,0.2,0.4,0.2,0.6l-5.6,29c-0.1,0.4-0.4,0.6-0.8,0.6h-4.8c-0.5,0-0.7-0.2-0.8-0.6l-5.6-29
				c-0.1-0.2,0-0.5,0.2-0.6c0.1-0.2,0.3-0.3,0.6-0.3h4.6c0.5,0,0.7,0.2,0.8,0.7l2.6,15.4l2.6-15.4c0-0.2,0.1-0.4,0.3-0.5
				c0.2-0.1,0.3-0.2,0.5-0.2h4.6C84.4,9.1,84.6,9.2,84.7,9.4"/>
			<path class="st2" d="M101.4,34c0.2,0.2,0.2,0.4,0.2,0.6v4.3c0,0.2-0.1,0.4-0.2,0.6c-0.2,0.2-0.4,0.2-0.6,0.2H88.1
				c-0.2,0-0.5-0.1-0.6-0.2c-0.2-0.2-0.2-0.3-0.2-0.6v-29c0-0.2,0.1-0.4,0.2-0.6c0.2-0.2,0.4-0.2,0.6-0.2h12.5
				c0.2,0,0.4,0.1,0.6,0.2c0.2,0.2,0.2,0.4,0.2,0.6v4.3c0,0.2-0.1,0.4-0.2,0.6c-0.2,0.2-0.4,0.2-0.6,0.2h-6.9v5.9h5
				c0.2,0,0.4,0.1,0.6,0.2c0.2,0.2,0.2,0.4,0.2,0.6V26c0,0.2-0.1,0.4-0.2,0.6c-0.2,0.2-0.4,0.2-0.6,0.2h-5v7h7.2
				C101.1,33.8,101.3,33.9,101.4,34"/>
			<path class="st2" d="M120.7,9.3c0.2,0.2,0.2,0.4,0.2,0.6v29c0,0.2-0.1,0.4-0.2,0.6c-0.2,0.2-0.4,0.2-0.6,0.2h-4.2
				c-0.4,0-0.7-0.2-0.8-0.6L110.5,26v12.9c0,0.2-0.1,0.4-0.2,0.6c-0.2,0.2-0.4,0.2-0.6,0.2h-4.3c-0.2,0-0.4-0.1-0.6-0.2
				c-0.2-0.2-0.2-0.3-0.2-0.6V10c0-0.2,0.1-0.4,0.2-0.6c0.2-0.2,0.4-0.2,0.6-0.2h4.3c0.4,0,0.7,0.2,0.8,0.6l4.6,12.9V10
				c0-0.2,0.1-0.4,0.2-0.6c0.2-0.2,0.4-0.2,0.6-0.2h4.3C120.3,9.1,120.5,9.2,120.7,9.3"/>
			<path class="st2" d="M139.8,9.3c0.2,0.2,0.2,0.4,0.2,0.6v4.3c0,0.2-0.1,0.4-0.2,0.6c-0.2,0.2-0.4,0.2-0.6,0.2h-3.9v23.9
				c0,0.2-0.1,0.4-0.2,0.6c-0.2,0.2-0.4,0.2-0.6,0.2h-4.7c-0.2,0-0.4-0.1-0.6-0.2c-0.2-0.2-0.2-0.3-0.2-0.6V15h-3.9
				c-0.2,0-0.4-0.1-0.6-0.2c-0.2-0.2-0.2-0.4-0.2-0.6V10c0-0.2,0.1-0.4,0.2-0.6c0.2-0.2,0.4-0.2,0.6-0.2h14.3
				C139.4,9.1,139.6,9.2,139.8,9.3"/>
			<path class="st2" d="M158.8,9.3c0.2,0.2,0.2,0.4,0.2,0.6v21.7c0,2.8-0.7,4.9-2.1,6.4c-1.4,1.5-3.4,2.3-6,2.3s-4.5-0.8-6-2.3
				c-1.4-1.5-2.1-3.7-2.1-6.5V10c0-0.2,0.1-0.4,0.2-0.6c0.2-0.2,0.4-0.2,0.6-0.2h4.8c0.2,0,0.4,0.1,0.6,0.2c0.2,0.2,0.2,0.4,0.2,0.6
				v22.2c0,0.7,0.2,1.3,0.5,1.7c0.3,0.3,0.7,0.5,1.2,0.5c0.4,0,0.8-0.1,1.1-0.4c0.3-0.2,0.5-0.8,0.5-1.8V10c0-0.2,0.1-0.4,0.2-0.6
				c0.2-0.2,0.4-0.2,0.6-0.2h4.8C158.4,9.1,158.6,9.2,158.8,9.3"/>
			<path class="st2" d="M168.2,21.9h1c0.5,0,1-0.1,1.2-0.2c0.2-0.1,0.4-0.2,0.5-0.4c0.2-0.2,0.3-0.6,0.4-1c0.1-0.5,0.1-1.2,0.1-2
				c0-0.9-0.1-1.6-0.2-2c-0.1-0.4-0.2-0.7-0.4-0.8c-0.3-0.4-0.9-0.6-1.9-0.6h-0.9V21.9z M178,38.9c0,0.2-0.1,0.4-0.2,0.6
				c-0.2,0.2-0.4,0.2-0.6,0.2h-4.7c-0.2,0-0.4-0.1-0.6-0.2c-0.2-0.2-0.2-0.4-0.2-0.6v-7.6c0-1.4-0.2-2.3-0.7-2.9
				c-0.4-0.5-1.1-0.7-2.1-0.7h-0.5v11.2c0,0.2-0.1,0.4-0.2,0.6c-0.2,0.2-0.4,0.2-0.6,0.2h-4.7c-0.2,0-0.5-0.1-0.6-0.2
				c-0.2-0.2-0.2-0.4-0.2-0.6V10c0-0.2,0.1-0.4,0.2-0.6c0.2-0.2,0.4-0.2,0.6-0.2h6.7c2.9,0,5,0.7,6.4,2.2c0.8,0.8,1.3,1.8,1.6,3
				c0.2,0.6,0.3,1.2,0.4,1.9c0.1,0.7,0.1,1.4,0.1,2.2c0,2.2-0.3,3.9-1,5.1c-0.2,0.3-0.3,0.7-0.6,1c-0.2,0.3-0.4,0.6-0.7,0.8
				c0.5,0.5,0.9,1,1.2,1.6c0.6,1.1,0.9,2.3,1,3.7v0.1V38.9z"/>
			<path class="st2" d="M196,34c0.2,0.2,0.2,0.4,0.2,0.6v4.3c0,0.2-0.1,0.4-0.2,0.6c-0.2,0.2-0.4,0.2-0.6,0.2h-12.8
				c-0.2,0-0.5-0.1-0.6-0.2c-0.2-0.2-0.2-0.3-0.2-0.6v-29c0-0.2,0.1-0.4,0.2-0.6c0.2-0.2,0.4-0.2,0.6-0.2h12.5
				c0.2,0,0.4,0.1,0.6,0.2c0.2,0.2,0.2,0.4,0.2,0.6v4.3c0,0.2-0.1,0.4-0.2,0.6c-0.2,0.2-0.4,0.2-0.6,0.2h-6.9v5.9h5
				c0.2,0,0.4,0.1,0.6,0.2c0.2,0.2,0.2,0.4,0.2,0.6V26c0,0.2-0.1,0.4-0.2,0.6c-0.2,0.2-0.4,0.2-0.6,0.2h-5v7h7.2
				C195.6,33.8,195.8,33.9,196,34"/>
		</g>
		<g>
			<polygon class="st2" points="92.4,58 94.3,58 94.3,62.4 86.4,62.4 86.4,58 88,58 88,51.1 86.4,51.1 86.4,46.7 103.2,46.7 
				103.2,52.6 98.8,52.6 98.8,51.1 92.4,51.1 92.4,52.6 97.6,52.6 97.6,56.5 92.4,56.5 			"/>
			<path class="st2" d="M111.1,56.4v-5.3h-1.7v-4.4h7.9V51l-1.7,0.1v4.5c0,1.9,0.9,2.8,3.2,2.8c2.3,0,3.2-0.9,3.2-2.8v-4.5l-1.7-0.1
				v-4.2h7.9v4.4h-1.7v5.3c0,3.9-2.8,6.5-7.6,6.5C113.9,62.9,111.1,60.3,111.1,56.4"/>
			<path class="st2" d="M147.9,58v-2.1h4.4c0,0,0,6.4,0,6.4h-17.2V58h1.5v-6.9h-1.5v-4.4h16.8v5.9h-4.4v-1.5h-6.4v1.5h5v3.9h-5V58
				H147.9z"/>
			<polygon class="st2" points="172.6,58 172.6,55.9 177,55.9 177,62.4 160.3,62.4 160.3,58 161.8,58 161.8,51.1 160.3,51.1 
				160.3,46.7 168.2,46.7 168.2,51.1 166.2,51.1 166.2,58 			"/>
		</g>
	</g>
</g>
</svg>
