<?xml version="1.0" encoding="utf-8"?>
<!-- Generator: Adobe Illustrator 24.0.3, SVG Export Plug-In . SVG Version: 6.00 Build 0)  -->
<svg version="1.1" id="Layer_1" xmlns="http://www.w3.org/2000/svg" xmlns:xlink="http://www.w3.org/1999/xlink" x="0px" y="0px"
	 viewBox="0 0 320 320" style="enable-background:new 0 0 320 320;" xml:space="preserve">
<style type="text/css">
	.st0{fill:#010101;}
	.st1{fill:#FFFFFF;}
	.st2{fill:#163F6C;}
</style>
<g>
	<rect x="37.2" y="37.1" class="st0" width="245" height="245"/>
</g>
<g>
	<path class="st1" d="M273.2,273.2H46.1V46.1h227.1V273.2z M50.3,269H269V50.3H50.3V269z"/>
</g>
<g>
	<path class="st1" d="M7.1,7v305.2h305.2V7H7.1z M282.2,282.1h-245v-245h245V282.1z"/>
</g>
<g>
	<path class="st2" d="M0.8,0.7v317.8h317.8V0.7H0.8z M306,305.9H13.4V13.3H306V305.9z"/>
</g>
<g>
	<g>
		<path class="st1" d="M173.7,152.1c-0.2,1.1-0.4,2.2-0.5,3.2c0.5-1.8,0.8-3.8,1.1-5.9C174.1,150.3,173.9,151.2,173.7,152.1z"/>
	</g>
	<path class="st1" d="M175,139.3c0-9.4-1.7-17.2-5.1-23.4c0.7-0.6,1.4-1.2,2.1-1.6c12-8.1,29.9-14.5,40.8-14.5
		c10.9,0,29.6,2.7,42.8,18.2L241,129.8c0,0-11.4-10.5-25.9-10.5c-14,0-35.2,8.4-40.8,30.1C174.8,146.3,175,142.9,175,139.3z"/>
	<path class="st1" d="M259.3,202.6c0,0-15.5,17.3-45.5,17.3s-50.1-15.7-57.3-37.8c-0.5-1.5-0.3-1.5-0.7-3.1c3.1-1.8,5.6-4,8-6.1
		c4.5-4.3,7.7-10.1,9.5-17.6c-2.4,22.3,14.7,41.5,36,44.1c22.3,2.7,32.3-12.7,32.3-12.7L259.3,202.6z"/>
</g>
<g>
	<path class="st1" d="M159.1,172.5c-7.8,6.5-18.8,9.7-33.3,9.7H94.2v47.7H66.6V97.3h61c13.1,0,23.6,3.4,31.4,10.3
		c7.8,6.8,11.7,17.4,11.7,31.8C170.8,155,166.9,166,159.1,172.5z M138,124.7c-3.5-2.9-8.4-4.4-14.7-4.4H94.2v39h29.1
		c6.3,0,11.2-1.6,14.7-4.8s5.3-8.2,5.3-15.1C143.2,132.6,141.5,127.7,138,124.7z"/>
</g>
</svg>
