<?xml version="1.0" encoding="utf-8"?>
<!-- Generator: Adobe Illustrator 24.0.3, SVG Export Plug-In . SVG Version: 6.00 Build 0)  -->
<svg version="1.1" xmlns="http://www.w3.org/2000/svg" xmlns:xlink="http://www.w3.org/1999/xlink" x="0px" y="0px"
	 viewBox="0 0 1920 1080" style="enable-background:new 0 0 1920 1080;" xml:space="preserve">
<style type="text/css">
	.st0{display:none;}
	.st1{display:inline;}
	.st2{fill:#676767;}
	.st3{fill:#FFFFFF;}
	.st4{fill:#163F6C;}
</style>
<g id="Layer_2" class="st0">
	<rect class="st1" width="1920" height="1080"/>
</g>
<g id="Layer_1">
	<g id="Layer_2_1_" class="st0">
		<rect class="st1" width="1920" height="1080"/>
	</g>
	<g id="Layer_3">
		<g>
			<g>
				<g>
					<rect x="848.1" y="305.6" class="st2" width="223.8" height="223.8"/>
				</g>
				<g>
					<path class="st3" d="M1063.7,521.2H856.3V313.8h207.4V521.2z M860.1,517.4h199.7V317.6H860.1V517.4z"/>
				</g>
				<g>
					<path class="st3" d="M820.6,278.1v278.8h278.8V278.1H820.6z M1071.9,529.4H848.1V305.6h223.8V529.4z"/>
				</g>
				<g>
					<path class="st4" d="M814.9,272.4v290.3h290.3V272.4H814.9z M1093.6,551.1H826.4V283.9h267.3L1093.6,551.1L1093.6,551.1z"/>
				</g>
				<g>
					<path class="st3" d="M981.9,409.5v23.2c0,7.4,3.2,10.5,10.6,10.5h55.9v22.3h-58.3c-20,0-30.5-10.6-30.5-30.5v-0.9
						c13.6-6.8,16.1-20.5,16.1-29.6c0-6.3-1.2-14.8-6.4-21.7c5-4,12-6.1,20.9-6.1h58.3V399h-56C985.1,399,981.9,402.1,981.9,409.5z"
						/>
				</g>
				<g>
					<path class="st3" d="M939.2,376.7H881v88.8h22.3v-33.3h36c25.2,0,30.5-15.1,30.5-27.8C969.8,391.8,964.5,376.7,939.2,376.7z
						 M903.2,399h33.2c11,0,11,4,11,5.5s0,5.5-11,5.5h-33.2V399z"/>
				</g>
			</g>
			<g>
				<g>
					<path class="st3" d="M1295.1,796.9l0.7,2.6h0.2l0.6-2.5l8.5-25.7h6.2l-12.6,35.2h-5.6l-12.6-35.2h6.2L1295.1,796.9z"/>
					<path class="st3" d="M1361.5,798.2H1349l-2.7,8.3h-6.1l12.3-35.2h5.6l12.1,35.2h-6.1L1361.5,798.2z M1350.6,793.3h9.2
						l-4.5-13.8h-0.2L1350.6,793.3z"/>
					<path class="st3" d="M1410.2,801.7h16.5v4.7h-22.4v-35.2h5.9L1410.2,801.7L1410.2,801.7z"/>
					<path class="st3" d="M1487.6,771.2v23.2c0,3.9-1.2,7-3.8,9.2c-2.6,2.2-5.9,3.4-10,3.4c-4,0-7.2-1.2-9.8-3.4
						c-2.5-2.2-3.7-5.3-3.7-9.2v-23.2h5.9v23.2c0,2.5,0.7,4.4,2.1,5.8c1.4,1.3,3.3,2,5.6,2c2.4,0,4.3-0.7,5.8-2
						c1.4-1.3,2.2-3.3,2.2-5.8v-23.2H1487.6z"/>
					<path class="st3" d="M1543.9,790.5h-13.7v11.1h16.2v4.7h-22.1v-35.2h22v4.7h-16v9.9h13.7L1543.9,790.5L1543.9,790.5z"/>
				</g>
				<g>
					<path class="st3" d="M886.6,798.3h0.2l10.2-27.1h7.5v35.2h-6v-25.3h-0.2l-9.7,25.3h-4l-9.9-25.8l-0.2,0.1v25.7h-5.8v-35.2h7.7
						L886.6,798.3z"/>
					<path class="st3" d="M960.3,798.2h-12.5l-2.7,8.3H939l12.3-35.2h5.6l12.1,35.2H963L960.3,798.2z M949.4,793.3h9.2l-4.5-13.8
						h-0.2L949.4,793.3z"/>
					<path class="st3" d="M1009,791.8v14.6h-5.9v-35.2h12.1c3.9,0,6.9,0.9,9.1,2.7c2.1,1.7,3.2,4.3,3.2,7.6c0,1.8-0.5,3.4-1.4,4.7
						c-1,1.3-2.3,2.4-4.1,3.2c2,0.7,3.5,1.6,4.3,3.1c0.9,1.4,1.3,3.2,1.3,5.3v2.9c0,1.1,0.1,2,0.4,3c0.3,1,0.7,1.7,1.2,2.2v0.6h-6.1
						c-0.7-0.6-1.1-1.3-1.2-2.5c-0.2-1.2-0.3-2.2-0.3-3.4v-2.8c0-1.8-0.5-3.3-1.5-4.3c-1.1-1.1-2.5-1.6-4.2-1.6H1009z M1009,787.1h6
						c2.3,0,4-0.5,5.2-1.3c1.1-0.9,1.6-2.3,1.6-4.1c0-1.7-0.6-3.2-1.6-4.1c-1.1-1-2.7-1.5-4.9-1.5h-6.2V787.1L1009,787.1z"/>
					<path class="st3" d="M1073.1,791.2h-2.9v15.3h-5.9v-35.2h5.9v14.8h2.3l11.4-14.9h6.9l0.1,0.1l-13.2,16.5l14.3,18.5h-7.4
						L1073.1,791.2z"/>
					<path class="st3" d="M1145.2,790.5h-13.7v11.1h16.2v4.7h-22.1v-35.2h22v4.7h-16v9.9h13.7L1145.2,790.5L1145.2,790.5z"/>
					<path class="st3" d="M1207.3,775.9h-11v30.5h-5.9v-30.5h-10.7v-4.7h27.5V775.9z"/>
				</g>
				<g>
					<path class="st3" d="M374.8,806.4v-35.2h11.5c3.8,0,6.9,0.8,9.1,2.4s3.3,4,3.3,7.2c0,1.5-0.5,3-1.3,4.2
						c-0.9,1.2-2.1,2.2-3.7,2.8c2.2,0.4,4,1.3,5.2,2.9c1.2,1.5,1.8,3.5,1.8,5.6c0,3.3-1.1,5.9-3.3,7.5c-2.1,1.7-5.2,2.6-8.9,2.6
						L374.8,806.4L374.8,806.4z M380.7,786h6.2c1.8,0,3.3-0.4,4.3-1.2c1.1-0.9,1.5-2.1,1.5-3.7c0-1.7-0.6-3.1-1.6-3.8
						c-1.2-0.9-2.7-1.2-4.9-1.2h-5.7L380.7,786L380.7,786z M380.7,790.4v11.3h8c2,0,3.6-0.5,4.7-1.3c1.2-0.9,1.6-2.3,1.6-4
						s-0.6-3.2-1.6-4.2c-1.1-1.1-2.6-1.6-4.5-1.6h-0.4L380.7,790.4L380.7,790.4z"/>
					<path class="st3" d="M462.9,771.2v23.2c0,3.9-1.2,7-3.8,9.2c-2.6,2.2-5.9,3.4-10,3.4c-4,0-7.2-1.2-9.8-3.4
						c-2.6-2.2-3.7-5.3-3.7-9.2v-23.2h5.9v23.2c0,2.5,0.7,4.4,2.1,5.8c1.4,1.3,3.3,2,5.6,2c2.4,0,4.3-0.7,5.8-2
						c1.4-1.3,2.2-3.3,2.2-5.8v-23.2H462.9z"/>
					<path class="st3" d="M505.8,806.4H500v-35.2h5.9V806.4z"/>
					<path class="st3" d="M549.3,801.7h16.5v4.7h-22.4v-35.2h5.9V801.7z"/>
					<path class="st3" d="M600.5,806.4v-35.2h11.6c4.4,0,8.1,1.4,10.9,4.2c2.8,2.8,4.2,6.3,4.2,10.8v5.4c0,4.4-1.4,8-4.2,10.8
						c-2.8,2.8-6.4,4.1-10.9,4.1L600.5,806.4L600.5,806.4z M606.3,775.9v25.8h5.8c2.8,0,5.1-1,6.7-2.9c1.6-1.9,2.5-4.3,2.5-7.4v-5.4
						c0-3-0.9-5.4-2.5-7.3c-1.6-1.9-3.9-2.9-6.7-2.9H606.3z"/>
					<path class="st3" d="M669.7,806.4h-5.9v-35.2h5.9V806.4z"/>
					<path class="st3" d="M734.8,806.4h-5.9L713.4,781h-0.2v25.3h-5.9v-35.2h5.9l15.6,25.4h0.2v-25.3h5.9V806.4z"/>
					<path class="st3" d="M798,801.7c-1,1.3-2.5,2.6-4.6,3.7c-2.1,1.1-4.9,1.6-8.2,1.6c-4.1,0-7.6-1.3-10.3-4s-4-6.1-4-10.4v-7.4
						c0-4.2,1.3-7.7,3.9-10.4c2.6-2.7,6-4,10-4c4.1,0,7.3,1.1,9.6,3.1c2.3,2,3.4,4.7,3.4,8.1l-0.1,0.2h-5.6c0-2-0.6-3.6-1.8-4.8
						c-1.2-1.2-3-1.8-5.3-1.8c-2.4,0-4.4,0.9-5.9,2.7c-1.5,1.8-2.2,4.1-2.2,6.9v7.4c0,2.9,0.8,5.2,2.3,7c1.5,1.8,3.6,2.8,6.1,2.8
						c1.9,0,3.4-0.2,4.5-0.7c1.1-0.4,1.9-1,2.5-1.5v-7.3h-7.4v-4.4h13.3v13.4H798z"/>
				</g>
				<path class="st3" d="M912.6,706.5v27.7h22.6v8.4h-31.5v-36.2L912.6,706.5L912.6,706.5z"/>
				<path class="st3" d="M954.8,706.5v27.7h22.6v8.4h-31.5v-36.2L954.8,706.5L954.8,706.5z"/>
				<path class="st3" d="M996.9,717.4c0,1.6,0,14.6,0,14.6c0.1,1.6,1.3,2,2.2,2s25.2-0.4,25.2-0.4v8.9l-28.8-0.2
					c-4.6,0.1-7.2-3.3-7.2-7.2V714c0-3.8,2.6-7.3,7.2-7.2l28.8-0.2v8.9c0,0-24.3-0.4-25.2-0.4s-2.2,0.5-2.2,2V717.4z"/>
				<path class="st3" d="M1499.6,609.5v51.2h46.7v17.4h-65.1v-68.6L1499.6,609.5L1499.6,609.5z"/>
				<polygon class="st4" points="1429.3,649.9 1417.8,678 1444,678 				"/>
				<polygon class="st3" points="1411,678 1392.2,678 1419.7,611.3 1437.8,611.3 1467.4,677.3 1448.4,677.7 1429.7,635.9 				"/>
				<path class="st3" d="M1317.2,629v-16.2h71.7V629h-26.2v52.2h-19.2V629H1317.2z"/>
				<path class="st3" d="M1298.2,611.2v68.5h-17.4v-68.5H1298.2z"/>
				<path class="st3" d="M1232.5,612.6c5.3,0,9.9,0.8,13.6,2.3c3.7,1.6,6.8,3.6,9.1,6.1c2.3,2.5,4,5.5,5.1,8.7
					c0.5,1.4,0.6,6.6,0,8.7c-1,3.3-2.8,6.2-5.1,8.8c-2.3,2.5-5.4,4.6-9.1,6.1c-3.7,1.6-8.3,2.3-13.6,2.3h-19.7v26.7h-18.7v-69.8
					h38.4V612.6z M1227.3,641.1c2.1,0,4.2-0.2,6.2-0.5s3.9-0.6,5.4-1.5s3.1-2.4,3.5-4.3c0.1-0.6,0.1-1.2,0-1.6
					c-0.4-1.9-2.1-3.4-3.6-4.3c-1.5-0.9-3.3-1.1-5.3-1.4c-2-0.3-4.1-0.5-6.2-0.5h-14.6v14L1227.3,641.1L1227.3,641.1z"/>
				<polygon class="st4" points="1143,653.9 1131.4,681.9 1157.6,681.9 				"/>
				<polygon class="st3" points="1124.6,681.9 1105.9,681.9 1133.3,615.2 1151.4,615.2 1181,681.3 1162,681.6 1143.3,639.8 				"/>
				<path class="st3" d="M1038.9,634.7c0,3,0,26.8,0,26.8c0.1,2.9,2.4,3.7,4,3.7c1.7,0,46.1-0.8,46.1-0.8v16.2l-52.7-0.3
					c-8.4,0.2-13.1-6.1-13.1-13.1v-38.5c0-7,4.7-13.2,13.1-13.1l52.7-0.3v16.2c0,0-44.4-0.8-46.1-0.8s-3.9,0.9-4,3.7V634.7z"/>
				<path class="st3" d="M919.4,615.2l33.4,40.2l0.2-40.2h16.5v68.4h-17.6l-33.3-42h-0.2v42H902v-68.4H919.4z"/>
				<polygon class="st3" points="825.7,665.3 878.5,665.3 878.5,682.6 826,682.6 				"/>
				<polygon class="st3" points="825.7,640.4 878.5,640.4 878.5,657.7 826,657.7 				"/>
				<polygon class="st3" points="825.7,615.5 878.5,615.5 878.5,632.8 826,632.8 				"/>
				<path class="st3" d="M735.3,616.6l18.5,47.9l19.1-47.9h21v69.2H778v-44h-0.2l-17.3,44h-14.6l-15.4-43.4h-0.2v43.4h-15.9v-69.2
					H735.3z"/>
				<path class="st3" d="M623.4,633.2V617h71.7v16.2h-26.2v52.2h-19.2v-52.2H623.4z"/>
				<polygon class="st4" points="581.7,656.3 570.1,684.4 596.3,684.4 				"/>
				<polygon class="st3" points="563.3,684.4 544.6,684.4 572,617.6 590.1,617.6 619.7,683.7 600.7,684 582,642.3 				"/>
				<path class="st3" d="M481.5,617.6v51.2h46.7v17.4H463v-68.6L481.5,617.6L481.5,617.6z"/>
				<path class="st3" d="M412.8,617c5.3,0,9.9,0.8,13.6,2.3c3.7,1.6,6.8,3.6,9.1,6.1c2.3,2.5,4,5.5,5.1,8.7c0.5,1.4,0.6,6.6,0,8.7
					c-1,3.3-2.8,6.2-5.1,8.8c-2.3,2.5-5.4,4.6-9.1,6.1c-3.7,1.6-8.3,2.3-13.6,2.3h-19.7v26.7h-18.7V617H412.8z M407.7,645.6
					c2.1,0,4.2-0.2,6.2-0.5s3.9-0.6,5.4-1.5s3.1-2.4,3.5-4.3c0.1-0.6,0.1-1.2,0-1.6c-0.4-1.9-2.1-3.4-3.6-4.3
					c-1.5-0.9-3.3-1.1-5.3-1.4c-2-0.3-4.1-0.5-6.2-0.5h-14.6v14L407.7,645.6L407.7,645.6z"/>
				<polygon class="st3" points="1043,724.2 1496.8,726.1 1043,728 				"/>
				<polygon class="st3" points="883.3,728 429.5,726.1 883.3,724.2 				"/>
			</g>
		</g>
	</g>
	<g id="Layer_1_3_" class="st0">
		<g id="Layer_2_2_" class="st1">
			<rect width="1920" height="1080"/>
		</g>
		<g id="Layer_1_2_" class="st1">
			<g id="Layer_2_3_" class="st0">
				<rect class="st1" width="1920" height="1080"/>
			</g>
			<g id="Layer_1_1_">
				<g id="Black_Box">
				</g>
				<g id="White_Box_2">
				</g>
				<g id="White_Box">
				</g>
				<g id="Blue_Box">
				</g>
				<g id="C">
				</g>
				<g id="P">
				</g>
				<g id="Name">
				</g>
				<g id="Lines">
					<g>
						<g>
							<g>
								<path class="st3" d="M1063.7,524.6H856.3V317.2h207.4V524.6z M860.1,520.8h199.7V321H860.1V520.8z"/>
							</g>
							<g>
								<path class="st3" d="M820.6,281.5v278.8h278.8V281.5H820.6z M1071.9,532.8H848.1V309h223.8V532.8z"/>
							</g>
							<g>
								<path class="st4" d="M814.9,275.8V566h290.3V275.8H814.9z M1093.6,554.5H826.4V287.3h267.3L1093.6,554.5L1093.6,554.5z"/>
							</g>
							<g>
								<g>
									<g>
										<g>
											<path class="st3" d="M1038.7,376.5v22.3h-56c-0.7,0-1.3,0-2,0.1c-0.8-7.1-3.6-15.4-10.9-21.1c3.2-0.8,6.7-1.2,10.6-1.2
												L1038.7,376.5L1038.7,376.5z"/>
											<path class="st3" d="M1038.7,443v22.3h-58.3c-18.9,0-29.4-9.5-30.4-27.5c10.5-0.9,17.5-4.4,22.2-9v3.7
												c0,7.4,3.2,10.5,10.6,10.5H1038.7z"/>
										</g>
									</g>
								</g>
								<g>
									<path class="st3" d="M944.6,376.5h-58.3v88.8h22.3V432h36c25.2,0,30.5-15.1,30.5-27.8C975.1,391.6,969.8,376.5,944.6,376.5
										z M908.6,398.8h33.2c11,0,11,4,11,5.5s0,5.5-11,5.5h-33.2V398.8z"/>
								</g>
							</g>
						</g>
						<path class="st3" d="M410.7,618.4c5.3,0,9.9,0.8,13.6,2.3c3.7,1.6,6.8,3.6,9.1,6.1c2.3,2.5,4,5.5,5.1,8.7
							c0.5,1.4,0.6,6.6,0,8.7c-1,3.3-2.8,6.2-5.1,8.8c-2.3,2.5-5.4,4.6-9.1,6.1c-3.7,1.6-8.3,2.3-13.6,2.3H391v26.7h-18.7v-69.8
							h38.4L410.7,618.4L410.7,618.4z M405.6,646.9c2.1,0,4.2-0.2,6.2-0.5s3.9-0.6,5.4-1.5s3.1-2.4,3.5-4.3c0.1-0.6,0.1-1.2,0-1.6
							c-0.4-1.9-2.1-3.4-3.6-4.3c-1.5-0.9-3.3-1.1-5.3-1.4c-2-0.3-4.1-0.5-6.2-0.5H391v14L405.6,646.9L405.6,646.9z"/>
						<path class="st3" d="M479.4,619v51.2H526v17.4h-65.1V619H479.4z"/>
						<polygon class="st3" points="561.2,685.7 542.5,685.7 569.9,619 588,619 617.6,685.1 598.6,685.4 579.9,643.6 						"/>
						<path class="st3" d="M621.3,634.6v-16.2H693v16.2h-26.2v52.2h-19.2v-52.2H621.3z"/>
						<path class="st3" d="M733.2,618l18.5,47.9l19.1-47.9h21v69.2H776v-44h-0.2l-17.3,44h-14.6l-15.4-43.4h-0.2v43.4h-15.9V618
							H733.2z"/>
						<g>
							<path class="st3" d="M823.6,616.8h52.8v17.3H824L823.6,616.8z M876.4,634.1H824l-0.3-17.3 M823.6,641.7h52.8V659H824
								L823.6,641.7z M823.6,666.7h52.8V684H824L823.6,666.7z"/>
						</g>
						<path class="st3" d="M917.3,616.6l33.4,40.2l0.2-40.2h16.5V685h-17.6l-33.3-42h-0.2v42h-16.5v-68.4H917.3z"/>
						<path class="st3" d="M1036.8,636c0,3,0,26.8,0,26.8c0.1,2.9,2.4,3.7,4,3.7c1.7,0,46.1-0.8,46.1-0.8V682l-52.7-0.3
							c-8.4,0.2-13.1-6.1-13.1-13.1v-38.5c0-7,4.7-13.2,13.1-13.1l52.7-0.3v16.2c0,0-44.4-0.8-46.1-0.8s-3.9,0.9-4,3.7V636z"/>
						<path class="st3" d="M1296.1,612.6v68.5h-17.4v-68.5H1296.1z"/>
						<polygon class="st3" points="1122.5,683.3 1103.8,683.3 1131.2,616.6 1149.3,616.6 1178.9,682.6 1159.9,683 1141.2,641.2 
													"/>
						<path class="st3" d="M1230.4,613.9c5.3,0,9.9,0.8,13.6,2.3c3.7,1.6,6.8,3.6,9.1,6.1c2.3,2.5,4,5.5,5.1,8.7
							c0.5,1.4,0.6,6.6,0,8.7c-1,3.3-2.8,6.2-5.1,8.8c-2.3,2.5-5.4,4.6-9.1,6.1c-3.7,1.6-8.3,2.3-13.6,2.3h-19.7v26.7H1192v-69.8
							h38.4V613.9z M1225.2,642.5c2.1,0,4.2-0.2,6.2-0.5s3.9-0.6,5.4-1.5s3.1-2.4,3.5-4.3c0.1-0.6,0.1-1.2,0-1.6
							c-0.4-1.9-2.1-3.4-3.6-4.3c-1.5-0.9-3.3-1.1-5.3-1.4c-2-0.3-4.1-0.5-6.2-0.5h-14.6v14L1225.2,642.5L1225.2,642.5z"/>
						<path class="st3" d="M1315,630.4v-16.2h71.7v16.2h-26.2v52.2h-19.2v-52.2H1315z"/>
						<polygon class="st3" points="1408.8,679.3 1390.1,679.3 1417.6,612.6 1435.6,612.6 1465.3,678.7 1446.2,679 1427.5,637.2 
													"/>
						<g>
							<polygon class="st4" points="579.6,657.7 568,685.7 594.2,685.7 							"/>
							<polygon class="st4" points="1140.9,655.2 1129.3,683.3 1155.5,683.3 							"/>
							<polygon class="st4" points="1427.2,651.3 1415.7,679.3 1441.9,679.3 							"/>
						</g>
						<path class="st3" d="M1497.4,610.8V662h46.7v17.4H1479v-68.6L1497.4,610.8L1497.4,610.8z"/>
						<path class="st3" d="M910.5,710.9v24.7H933v8.4h-31.5v-33.2L910.5,710.9L910.5,710.9z"/>
						<path class="st3" d="M952.7,710.9v24.7h22.6v8.4h-31.5v-33.2L952.7,710.9L952.7,710.9z"/>
						<path class="st3" d="M994.8,718.7c0,1.6,0,14.6,0,14.6c0.1,1.6,1.3,2,2.2,2s25.2-0.4,25.2-0.4v8.9l-28.8-0.2
							c-4.6,0.1-7.2-3.3-7.2-7.2v-21.1c0-3.8,2.6-7.3,7.2-7.2l28.8-0.2v8.9c0,0-24.3-0.4-25.2-0.4s-2.2,0.5-2.2,2V718.7z"/>
						<polygon class="st3" points="1040.9,725.6 1494.7,727.5 1040.9,729.4 						"/>
						<polygon class="st3" points="881.2,729.4 427.4,727.5 881.2,725.6 						"/>
					</g>
				</g>
				<g>
					<g>
						<path class="st3" d="M1283.1,813.4l1.3,4.5h0.3l1.3-4.5l14.3-40.9h8.1l-20.6,55.5h-6.4l-20.6-55.5h8.1L1283.1,813.4z"/>
						<path class="st3" d="M1354,813.7h-20.9l-5,14.3h-7.7l20-55.5h6.4l19.6,55.5h-7.7L1354,813.7z M1335.4,807.4h16.6l-8.1-23.9
							h-0.3L1335.4,807.4z"/>
						<path class="st3" d="M1394.7,822.2h27.1v5.8h-34.6v-55.5h7.5V822.2z"/>
						<path class="st3" d="M1481.6,772.5v36.9c0,6.1-2,10.9-6,14.3c-4,3.4-9.1,5.1-15.3,5.1c-6,0-10.9-1.7-14.8-5.1
							c-3.8-3.4-5.8-8.2-5.8-14.3v-36.9h7.5v36.9c0,4.3,1.3,7.5,3.7,9.9s5.5,3.5,9.4,3.5c4.1,0,7.4-1.1,9.9-3.5
							c2.6-2.4,3.8-5.7,3.8-9.9v-36.9H1481.6z"/>
						<path class="st3" d="M1536.3,802.3h-22.9v19.9h26.7v5.8h-34.2v-55.5h33.8v6h-26.3v17.9h22.9V802.3L1536.3,802.3z"/>
					</g>
					<g>
						<path class="st3" d="M881.3,817.7h0.3l17.7-45.1h9.4V828h-7.5v-41.6h-0.3L884.2,828h-5.3l-17.3-43h-0.3v43h-7.5v-55.5h9.9
							L881.3,817.7z"/>
						<path class="st3" d="M963.4,813.7h-20.9l-5,14.3h-7.7l20-55.5h6.4l19.6,55.5h-7.7L963.4,813.7z M944.8,807.4h16.6l-8.1-23.9
							H953L944.8,807.4z"/>
						<path class="st3" d="M1004.1,804v24h-7.5v-55.5h19c6.1,0,10.6,1.3,13.9,4s4.8,6.7,4.8,11.8c0,2.8-0.7,5.4-2.3,7.4
							c-1.4,2.1-3.7,3.8-6.5,5c3,1,5.3,2.6,6.5,4.8s2,5,2,8.2v5.3c0,1.7,0.1,3.3,0.6,4.7c0.4,1.4,1,2.6,2,3.4v0.9h-7.8
							c-1-0.9-1.6-2.1-1.8-3.8c-0.3-1.7-0.4-3.4-0.4-5.3v-5.1c0-3-0.9-5.4-2.7-7.2s-4.1-2.7-7.1-2.7L1004.1,804L1004.1,804
							L1004.1,804z M1004.1,798.1h10.6c4.3,0,7.2-0.9,9.2-2.4c1.8-1.6,2.8-4.1,2.8-7.4c0-3.1-0.9-5.5-2.7-7.2s-4.7-2.6-8.5-2.6H1004
							L1004.1,798.1L1004.1,798.1L1004.1,798.1z"/>
						<path class="st3" d="M1071.1,802.9h-4.8V828h-7.5v-55.5h7.5v24.6h4.1l20.6-24.6h8.5l0.1,0.1l-22.4,26.3l24.1,28.8l-0.1,0.1
							h-9.1L1071.1,802.9z"/>
						<path class="st3" d="M1151.2,802.3h-22.9v19.9h26.7v5.8h-34.2v-55.5h33.8v6h-26.3v17.9h22.9V802.3L1151.2,802.3z"/>
						<path class="st3" d="M1215.4,778.5h-18.3V828h-7.5v-49.6h-18v-6h43.9L1215.4,778.5L1215.4,778.5z"/>
					</g>
					<g>
						<path class="st3" d="M371.9,828v-55.5h18.2c5.8,0,10.4,1.3,13.6,3.7c3.3,2.4,5,6.2,5,11.2c0,2.4-0.7,4.5-2.3,6.4
							c-1.4,1.8-3.4,3.3-5.8,4.3c3.7,0.6,6.5,2.1,8.7,4.7c2.1,2.7,3.1,5.8,3.1,9.4c0,5.1-1.7,8.9-5,11.6c-3.3,2.7-7.8,4-13.5,4h-22
							L371.9,828L371.9,828z M379.4,796.1h12.2c2.8,0,5.1-0.7,6.8-2.3s2.7-3.7,2.7-6.4c0-3-1-5.3-2.8-6.7s-4.7-2.3-8.2-2.3h-10.6
							v17.7H379.4z M379.4,802v20.2h14.5c3.4,0,6.1-0.9,8-2.6c1.8-1.7,2.8-4.1,2.8-7.2c0-3.1-1-5.5-2.8-7.4c-2-1.8-4.5-2.8-7.8-3
							h-0.4H379.4L379.4,802z"/>
						<path class="st3" d="M475,772.5v36.9c0,6.1-2,10.9-6,14.3c-4,3.4-9.1,5.1-15.3,5.1c-6,0-10.9-1.7-14.8-5.1
							c-3.8-3.4-5.8-8.2-5.8-14.3v-36.9h7.5v36.9c0,4.3,1.3,7.5,3.7,9.9c2.4,2.4,5.5,3.5,9.4,3.5c4.1,0,7.4-1.1,9.9-3.5
							s3.8-5.7,3.8-9.9v-36.9H475z"/>
						<path class="st3" d="M507.6,828h-7.5v-55.5h7.5V828z"/>
						<path class="st3" d="M541.4,822.2h27.1v5.8h-34.6v-55.5h7.5V822.2L541.4,822.2z"/>
						<path class="st3" d="M589.4,828v-55.5h17.5c7.2,0,13.1,2.3,17.5,6.7s6.7,10.2,6.7,17.3v7.5c0,7.1-2.3,12.9-6.7,17.3
							c-4.4,4.4-10.2,6.7-17.5,6.7H589.4L589.4,828z M596.8,778.5v43.7h9.9c5.1,0,9.2-1.7,12.2-5.1c3-3.4,4.4-7.7,4.4-13.1v-7.7
							c0-5.3-1.4-9.5-4.4-12.9s-7-5.1-12.2-5.1L596.8,778.5L596.8,778.5z"/>
						<path class="st3" d="M663.1,828h-7.5v-55.5h7.5V828z"/>
						<path class="st3" d="M731.2,828h-7.5L697,785.6l-0.3,0.1V828h-7.5v-55.5h7.5l26.7,42.3l0.3-0.1v-42.3h7.5V828z"/>
						<path class="st3" d="M796.7,820.5c-1.3,2.1-3.5,4-6.8,5.7s-7.5,2.6-12.8,2.6c-6.4,0-11.6-2.1-15.9-6.4
							c-4.3-4.3-6.2-9.8-6.2-16.5v-11.5c0-6.7,2-12.2,6.1-16.5s9.2-6.4,15.6-6.4c6.2,0,11.1,1.7,14.6,5s5.4,7.5,5.3,12.5l-0.1,0.3
							h-7.2c0-3.4-1.1-6.2-3.3-8.4c-2.1-2.3-5.3-3.4-9.4-3.4c-4.3,0-7.7,1.6-10.2,4.8c-2.6,3.1-3.8,7.2-3.8,12.1v11.5
							c0,5,1.4,8.9,4.1,12.2c2.7,3.1,6.2,4.8,10.5,4.8c3.3,0,5.8-0.4,7.8-1.3c2-0.9,3.4-1.8,4.3-3v-12.5h-12.6v-5.8h20.2
							L796.7,820.5L796.7,820.5z"/>
					</g>
				</g>
			</g>
		</g>
	</g>
</g>
</svg>
