<?xml version="1.0" encoding="utf-8"?>
<!-- Generator: Adobe Illustrator 26.2.1, SVG Export Plug-In . SVG Version: 6.00 Build 0)  -->
<svg version="1.1" xmlns="http://www.w3.org/2000/svg" xmlns:xlink="http://www.w3.org/1999/xlink" x="0px" y="0px"
	 viewBox="0 0 480 39" style="enable-background:new 0 0 480 39;" xml:space="preserve">
<style type="text/css">
	.st0{display:none;}
	.st1{display:inline;fill:#FF1166;}
	.st2{display:inline;fill:#FFFFFF;}
	.st3{fill:#FFFFFF;}
	.st4{fill:none;stroke:#FFFFFF;stroke-miterlimit:10;}
	.st5{fill:#88332B;}
</style>
<g id="Layer_2" class="st0">
	<rect class="st1" width="480" height="39"/>
</g>
<g id="Layer_1">
	<g id="Layer_1_1_" class="st0">
		<path class="st2" d="M480,0v39H0V0c44.9,19.3,135.5,22.5,240,22.5S435.1,19.3,480,0z"/>
	</g>
	<path class="st3" d="M480,14v25H0V14c0,0,159.8,9.1,230,9.9c0,0.2,0,0.4,0,0.6c0,5.5,4.5,10,10,10s10-4.5,10-10c0-0.2,0-0.4,0-0.6
		C320.2,23,480,14,480,14z"/>
	<circle class="st4" cx="240" cy="24.5" r="8.4"/>
	<circle class="st5" cx="240" cy="24.5" r="6.7"/>
	<g>
		<path class="st3" d="M242.6,24.7c0,0.5,0,1-0.1,1.5c-0.3,1.2-1.4,1.9-2.6,1.9c-1.2-0.1-2.2-1-2.4-2.1c0-0.1,0-0.2,0-0.3
			c0-0.3,0-0.6,0-0.9C239.1,24.7,240.8,24.7,242.6,24.7z"/>
		<path class="st3" d="M242.6,23.5c0-1.3-1-2.4-2.3-2.5c-1.3-0.1-2.5,0.7-2.8,2c-0.1,0.5,0,0.9-0.1,1.4c0,0,0,0,0,0h5.1
			C242.6,24.1,242.6,23.8,242.6,23.5z M240.7,23.3c-0.2,0.2-0.4,0.4-0.6,0.6c-0.1,0.1-0.1,0-0.2,0c-0.2-0.2-0.4-0.4-0.6-0.6
			c-0.1-0.1-0.1-0.2,0-0.2c0.1-0.1,0.1-0.1,0.2,0c0.1,0.1,0.2,0.2,0.3,0.3v-1.3c0,0,0,0-0.1,0.1c-0.1,0.1-0.2,0.2-0.3,0.3
			c-0.1,0.1-0.1,0.1-0.2,0c-0.1-0.1-0.1-0.1,0-0.2c0.2-0.2,0.4-0.4,0.6-0.6c0.1-0.1,0.1,0,0.2,0c0.2,0.2,0.4,0.4,0.6,0.6
			c0.1,0.1,0.1,0.1,0,0.2c-0.1,0.1-0.1,0.1-0.2,0c-0.1-0.1-0.2-0.2-0.3-0.3v1.3c0.1-0.1,0.2-0.2,0.2-0.2c0,0,0.1-0.1,0.1-0.1
			c0.1,0,0.1,0,0.2,0C240.7,23.2,240.7,23.3,240.7,23.3z"/>
	</g>
</g>
</svg>
